<?xml version="1.0" encoding="utf-8"?><!-- Uploaded to: SVG Repo, www.svgrepo.com, Generator: SVG Repo Mixer Tools -->
<svg width="800px" height="800px" viewBox="0 0 24 24" xmlns="http://www.w3.org/2000/svg">
<g fill-opacity="0">
<path fill-opacity="1"  d="m11.604 5.823c0-.313 0-.606-.021-.856.104.23.23.48.334.689l.418.751h.459v-1.962h-.418v.584c-.001.045-.002.097-.002.15 0 .234.016.465.047.69l-.003-.026c-.108-.27-.213-.489-.33-.702l.017.034-.418-.73h-.522v1.962h.418v-.584z"/>
<path fill-opacity="1"  d="m6.094 11.833c-.042.23-.08.459-.104.689-.021-.23-.062-.438-.104-.668l-.171-.834h-.48l-.16.814c-.042.25-.104.48-.126.689-.042-.209-.08-.459-.126-.689l-.149-.814h-.48l.459 1.962h.48l.188-.856c.041-.166.078-.372.102-.581l.002-.024c.021.23.062.418.08.606l.167.856h.48l.501-1.962h-.4z"/>
<path fill-opacity="1"  d="m19.054 12.146h.71v-.354h-.71v-.418h.751v-.355h-1.21v1.962h1.252v-.354h-.793z"/>
<path fill-opacity="1"  d="m12.166 18.511c-.25-.104-.376-.146-.376-.271 0-.104.08-.188.292-.188.151.006.294.035.428.083l-.01-.003.104-.354c-.148-.06-.319-.098-.498-.104h-.003c-.459 0-.751.25-.751.584 0 .292.209.459.542.584.23.08.334.146.334.271s-.104.209-.313.209c-.184-.004-.357-.05-.51-.128l.007.003-.08.376c.16.079.348.126.546.126h.014-.001c.542 0 .793-.271.793-.606.007-.268-.163-.456-.518-.582z"/>
<path fill-opacity="1" fill="#f3f3f380" d="m12 0c-6.627 0-12 5.373-12 12s5.373 12 12 12 12-5.373 12-12c-.009-6.624-5.376-11.991-11.999-12zm10.059 13.106c-.534 4.693-4.205 8.386-8.842 8.948l-.049.005-1.169-2.025-1.169 2.024c-4.67-.57-8.331-4.238-8.886-8.862l-.005-.048 1.962-1.148-1.962-1.127c.559-4.672 4.221-8.341 8.841-8.906l.049-.005 1.169 2.025 1.169-2.024c4.685.567 8.356 4.259 8.886 8.905l.004.047-1.899 1.106z"/>
</g>
</svg>